<?xml version="1.0" encoding="UTF-8"?>
<svg width="64" height="25" fill="none" viewBox="0 0 64 25" xmlns="http://www.w3.org/2000/svg">
 <path d="m32 24.318c1 0 1 7e-4 1 7e-4v-0.0016l1e-4 -0.0077c1e-4 -0.0064 2e-4 -0.0157 5e-4 -0.0277 1e-4 -0.0064 3e-4 -0.0135 5e-4 -0.0213 0.0012-0.0455 0.0038-0.1159 9e-3 -0.2076 0.0105-0.1838 0.0318-0.4514 0.0749-0.7745 0.0868-0.6514 0.2588-1.5022 0.5935-2.3389 0.3355-0.8389 0.8159-1.6171 1.4929-2.1813 0.6594-0.5495 1.5563-0.9401 2.8286-0.9401s2.1692 0.3906 2.8286 0.9401c0.677 0.5642 1.1574 1.3424 1.4929 2.1813 0.3347 0.8367 0.5067 1.6875 0.5935 2.3389 0.0431 0.3231 0.0644 0.5907 0.0749 0.7745 0.0053 0.0917 0.0078 0.1621 9e-3 0.2076 6e-4 0.0227 9e-4 0.0392 1e-3 0.049l1e-4 0.0067v0.0026s0-7e-4 1-7e-4 1 7e-4 1 7e-4v-0.0026l1e-4 -0.0067c1e-4 -0.0098 4e-4 -0.0263 1e-3 -0.049 0.0012-0.0455 0.0037-0.1159 9e-3 -0.2076 0.0105-0.1838 0.0318-0.4514 0.0749-0.7745 0.0868-0.6514 0.2588-1.5022 0.5935-2.3389 0.3355-0.8389 0.8159-1.6171 1.4929-2.1813 0.6594-0.5495 1.5563-0.9401 2.8286-0.9401s2.1692 0.3906 2.8286 0.9401c0.677 0.5642 1.1574 1.3424 1.4929 2.1813 0.3347 0.8367 0.5067 1.6875 0.5935 2.3389 0.0431 0.3231 0.0644 0.5907 0.0749 0.7745 0.0053 0.0917 0.0078 0.1621 9e-3 0.2076 6e-4 0.0227 9e-4 0.0392 1e-3 0.049l1e-4 0.0086h1 0.3591 7.6409v-1h-7.0656c-0.0105-0.0961-0.0227-0.1977-0.0369-0.3041-0.1007-0.7548-0.3037-1.779-0.719-2.8173-0.4145-1.0362-1.0591-2.1329-2.0696-2.975-1.0281-0.8568-2.3812-1.4036-4.1089-1.4036s-3.0808 0.5468-4.1089 1.4036c-0.8757 0.7297-1.4766 1.6508-1.8911 2.5578-0.4145-0.907-1.0154-1.8281-1.8911-2.5578-1.0281-0.8568-2.3812-1.4036-4.1089-1.4036s-3.0808 0.5468-4.1089 1.4036c-0.8757 0.7298-1.4766 1.6508-1.8911 2.5578-0.4145-0.907-1.0154-1.828-1.8911-2.5578-1.0281-0.8568-2.3812-1.4036-4.1089-1.4036s-3.0808 0.5468-4.1089 1.4036c-0.8757 0.7298-1.4766 1.6508-1.8911 2.5578-0.4145-0.907-1.0154-1.828-1.8911-2.5578-1.0281-0.8568-2.3812-1.4036-4.1089-1.4036s-3.0808 0.5468-4.1089 1.4036c-1.0105 0.8421-1.6551 1.9388-2.0695 2.975-0.41532 1.0383-0.61835 2.0625-0.719 2.8173-0.01419 0.1064-0.02641 0.208-0.03693 0.3041h-7.0656v1h7.8425 0.15751c1 0 1 7e-4 1 7e-4l1e-4 -0.0093c1.3e-4 -0.0098 4e-4 -0.0263 0.00101-0.049 0.00121-0.0455 0.00374-0.1159 0.00898-0.2076 0.0105-0.1838 0.03181-0.4514 0.07489-0.7745 0.08685-0.6514 0.25882-1.5022 0.5935-2.3389 0.33552-0.8389 0.81592-1.6171 1.4929-2.1813 0.6594-0.5495 1.5563-0.9401 2.8286-0.9401s2.1692 0.3906 2.8286 0.9401c0.677 0.5642 1.1574 1.3424 1.4929 2.1813 0.3347 0.8367 0.5067 1.6875 0.5935 2.3389 0.0431 0.3231 0.0644 0.5907 0.0749 0.7745 0.0053 0.0917 0.0078 0.1621 9e-3 0.2076 6e-4 0.0227 9e-4 0.0392 1e-3 0.049l1e-4 0.0093s0-7e-4 1-7e-4 1 7e-4 1 7e-4l1e-4 -0.0093c1e-4 -0.0098 4e-4 -0.0263 1e-3 -0.049 0.0012-0.0455 0.0037-0.1159 9e-3 -0.2076 0.0105-0.1838 0.0318-0.4514 0.0749-0.7745 0.0868-0.6514 0.2588-1.5022 0.5935-2.3389 0.3355-0.8389 0.8159-1.6171 1.4929-2.1813 0.6594-0.5495 1.5563-0.9401 2.8286-0.9401s2.1692 0.3906 2.8286 0.9401c0.677 0.5642 1.1574 1.3424 1.4929 2.1813 0.3347 0.8367 0.5067 1.6875 0.5935 2.3389 0.0431 0.3231 0.0644 0.5907 0.0749 0.7745 0.0053 0.0917 0.0078 0.1621 9e-3 0.2076 6e-4 0.0227 9e-4 0.0392 1e-3 0.049l1e-4 0.0077v0.0016s0-7e-4 1-7e-4z" fill="#000"/>
</svg>
